<?xml version="1.0" encoding="utf-8"?>
<!-- Generator: Adobe Illustrator 26.0.1, SVG Export Plug-In . SVG Version: 6.00 Build 0)  -->
<svg version="1.1" id="Layer_1" xmlns="http://www.w3.org/2000/svg" xmlns:xlink="http://www.w3.org/1999/xlink" x="0px" y="0px"
	 viewBox="0 0 1622.85 1233.9" style="enable-background:new 0 0 1622.85 1233.9;" xml:space="preserve">
<style type="text/css">
	.st0{fill:#00A2E2;}
	.st1{fill:#235DA9;}
</style>
<g>
	<g>
		<g>
			<polygon class="st0" points="4.41,700.54 -0.01,700.54 -0.01,765.5 4.41,765.5 12.22,765.5 43.5,765.5 43.5,753.7 12.22,753.7 
				12.22,739.14 38.59,739.14 38.59,727.34 12.22,727.34 12.22,712.34 43.5,712.34 43.5,700.54 12.22,700.54 			"/>
			<path class="st0" d="M93.09,732.03c-2.05-1.3-4.32-2.31-6.79-3.01c-2.48-0.7-4.96-1.28-7.46-1.77c-2.27-0.45-4.38-0.93-6.34-1.44
				c-1.97-0.53-3.57-1.32-4.78-2.39c-1.22-1.08-1.84-2.66-1.84-4.74v-0.04c0-2.23,1.03-3.97,3.09-5.2c2.05-1.24,4.96-1.85,8.71-1.85
				c2.5,0,5.11,0.46,7.84,1.41c2.73,0.94,5.34,2.28,7.84,4.04l5.18-10.36c-3.12-2.18-6.5-3.85-10.14-5.03
				c-3.63-1.18-7.21-1.77-10.72-1.77c-7.62,0-13.53,1.74-17.69,5.21c-4.17,3.47-6.26,8.37-6.26,14.72v0.04
				c0,3.93,0.67,7.07,1.99,9.43c1.33,2.35,3.08,4.16,5.25,5.43c2.18,1.27,4.56,2.18,7.15,2.76s5.15,1.07,7.68,1.45
				c2.11,0.33,4.08,0.73,5.88,1.2c1.8,0.48,3.25,1.21,4.36,2.21c1.1,1,1.65,2.43,1.65,4.32v0.04c0,2.47-1.11,4.39-3.31,5.74
				c-2.2,1.36-5.3,2.03-9.29,2.03c-3.45,0-6.82-0.56-10.09-1.68c-3.28-1.12-6.16-2.7-8.67-4.76l-5.67,10.09
				c2.08,1.7,4.42,3.16,7.01,4.36c2.6,1.2,5.37,2.12,8.34,2.75c2.96,0.62,5.99,0.94,9.09,0.94c7.87,0,13.96-1.72,18.27-5.16
				c4.33-3.43,6.48-8.28,6.48-14.54v-0.09c0-3.67-0.62-6.64-1.84-8.94C96.78,735.16,95.15,733.35,93.09,732.03z"/>
			<polygon class="st0" points="102.08,712.34 119.77,712.34 119.77,765.5 132.01,765.5 132.01,712.34 149.71,712.34 149.71,700.54 
				102.08,700.54 			"/>
			<path class="st0" d="M197.26,706.64c-4.45-4.07-10.75-6.1-18.92-6.1h-9.25h-6.07h-6.16v64.96h6.16h6.07h9.2
				c5.69,0,10.43-0.97,14.23-2.92c3.8-1.95,6.65-4.67,8.56-8.18c1.9-3.5,2.85-7.55,2.85-12.17v-18.41
				C203.94,716.43,201.71,710.7,197.26,706.64z M191.25,742.58c0,3.51-1.1,6.24-3.3,8.2c-2.21,1.95-5.32,2.93-9.34,2.93h-9.52
				v-41.37h9.52c4.01,0,7.13,0.97,9.34,2.91c2.2,1.94,3.3,4.67,3.3,8.22V742.58z"/>
		</g>
		<g>
			<path class="st0" d="M1469.06,733.51c1.84-2.35,3.28-4.98,4.32-7.88c1.02-2.91,1.53-5.83,1.53-8.78v-0.04
				c0-5.39-1.68-9.56-5.03-12.51c-3.35-2.94-8.08-4.42-14.18-4.42c-5.64,0-10.2,1.7-13.73,5.09c-3.53,3.4-5.51,8.18-5.92,14.35v0.04
				h12.56v-0.04c0.27-2.44,1.03-4.33,2.3-5.65c1.27-1.33,2.89-1.99,4.89-1.99c2.09,0,3.69,0.47,4.82,1.43
				c1.14,0.95,1.71,2.31,1.71,4.07v0.09c0,1.19-0.29,2.48-0.84,3.87c-0.55,1.38-1.32,2.73-2.34,4.04l-22.29,29.31v11.03h38.42v-11.8
				h-22.2L1469.06,733.51z"/>
			<path class="st0" d="M1504.55,699.73c-6.4,0-11.25,1.64-14.54,4.91c-3.26,3.28-4.9,7.79-4.9,13.54v29.54
				c0,5.66,1.62,10.15,4.87,13.47s8.1,4.98,14.57,4.98c6.4,0,11.24-1.63,14.52-4.91c3.26-3.27,4.9-7.79,4.9-13.54v-29.54
				c0-5.78-1.62-10.29-4.89-13.55C1515.81,701.37,1510.96,699.73,1504.55,699.73z M1511.73,744.59c0,3.04-0.55,5.43-1.68,7.17
				c-1.12,1.75-2.96,2.61-5.51,2.61c-2.53,0-4.37-0.86-5.51-2.61c-1.12-1.74-1.69-4.13-1.69-7.17v-23.28c0-3.07,0.57-5.47,1.69-7.2
				c1.14-1.72,2.98-2.59,5.51-2.59c2.55,0,4.39,0.86,5.51,2.59s1.68,4.13,1.68,7.2V744.59z"/>
			<path class="st0" d="M1566.82,733.51c1.84-2.35,3.28-4.98,4.32-7.88c1.02-2.91,1.53-5.83,1.53-8.78v-0.04
				c0-5.39-1.68-9.56-5.03-12.51c-3.35-2.94-8.08-4.42-14.18-4.42c-5.64,0-10.2,1.7-13.73,5.09c-3.53,3.4-5.51,8.18-5.92,14.35v0.04
				h12.56v-0.04c0.27-2.44,1.03-4.33,2.3-5.65c1.27-1.33,2.89-1.99,4.89-1.99c2.09,0,3.69,0.47,4.82,1.43
				c1.14,0.95,1.71,2.31,1.71,4.07v0.09c0,1.19-0.29,2.48-0.84,3.87c-0.55,1.38-1.32,2.73-2.34,4.04l-22.29,29.31v11.03h38.42v-11.8
				h-22.2L1566.82,733.51z"/>
			<polygon class="st0" points="1622.84,743.74 1617.77,743.74 1617.77,727.3 1605.51,727.3 1605.51,743.74 1593.67,743.74 
				1613.16,700.58 1599.31,700.58 1579.3,744.28 1579.3,755.54 1605.51,755.54 1605.51,765.55 1617.77,765.55 1617.77,755.54 
				1622.84,755.54 			"/>
		</g>
		<g>
			<path class="st1" d="M122.89,887.57v117.51H53.95c-6.4,0-12.4-1.2-17.99-3.6c-7.2-3.59-10.79-13.39-10.79-29.37
				c0-6.79,0.6-14.98,1.8-24.58H3c-2.01,11.18-3.01,22.37-3.01,33.56c0,22.38,6.99,36.78,20.98,43.16c7.99,3.59,18.18,5.4,30.58,5.4
				h99.51V868.98l-21.58,9C125.09,879.99,122.89,883.18,122.89,887.57z"/>
			<path class="st1" d="M66.54,954.11l41.36-14.98l-4.19-14.99l-17.99,6.6c-5.99-3.2-9-6-9-8.4c0-1.59,1-2.89,3.01-3.89
				c1.99-1,4.79-1.51,8.39-1.51l5.99,0.61l1.19-15.59c-2-0.39-4.79-0.6-8.39-0.6c-8,0-14.38,2-19.18,5.99c-4.8,4-7.2,8.6-7.2,13.79
				c0,5.6,2.6,10.79,7.79,15.59l-7.79,3L66.54,954.11z"/>
			<path class="st1" d="M216.41,939.13v89.93c0,17.58-10.4,26.38-31.18,26.38h-6.59l-7.79,22.78c5.19,1.6,12.59,2.4,22.18,2.4
				c15.98,0,28.38-4.4,37.17-13.19c8.79-8.79,13.19-21.38,13.19-37.77V922.96l-21.58,7.19
				C218.21,932.14,216.41,935.13,216.41,939.13z"/>
			<path class="st1" d="M621.09,887.57v24.59c0,1.6,0.39,2.4,1.19,2.4h25.18c0.79,0,1.2-0.8,1.2-2.4v-24.59c0-0.79-0.4-1.2-1.2-1.2
				h-25.18C621.47,886.37,621.09,886.77,621.09,887.57z"/>
			<path class="st1" d="M603.7,874.38h24.59c0.79,0,1.19-0.39,1.19-1.19v-25.18c0-0.79-0.4-1.19-1.19-1.19H603.7
				c-1.6,0-2.4,0.4-2.4,1.19v25.18C601.29,873.99,602.09,874.38,603.7,874.38z"/>
			<path class="st1" d="M583.91,914.55h25.17c0.8,0,1.2-0.8,1.2-2.4v-24.59c0-0.79-0.4-1.2-1.2-1.2h-25.17c-0.81,0-1.2,0.4-1.2,1.2
				v24.59C582.71,913.75,583.1,914.55,583.91,914.55z"/>
			<path class="st1" d="M778.74,870.19c-0.8,0-1.19,0.4-1.19,1.19v24.59c0,1.6,0.39,2.39,1.19,2.39h25.19c0.78,0,1.2-0.79,1.2-2.39
				v-24.59c0-0.79-0.41-1.19-1.2-1.19H778.74z"/>
			<path class="st1" d="M740.39,898.36h25.17c0.8,0,1.2-0.79,1.2-2.39v-24.59c0-0.79-0.4-1.19-1.2-1.19h-25.17
				c-0.81,0-1.2,0.4-1.2,1.19v24.59C739.17,897.56,739.58,898.36,740.39,898.36z"/>
			<path class="st1" d="M766.77,933.14l0.6,71.94h-25.78h-11.99h-38.37v-90.52l-21.58,8.99c-4.8,2.01-7.2,5.2-7.2,9.6l0.61,71.94
				h-28.18c-3.2,0-4.8-1.4-4.8-4.2c0-35.56-1.4-60.35-4.19-74.34l-22.19,11.39c0.8,11.6,1.2,22.59,1.2,32.98
				c0,17.59-1.2,27.57-3.6,29.97c-2.8,2.8-6.2,4.2-10.19,4.2h-24.58v-72.55l-19.78,7.2c-4.41,2.01-6.6,5.2-6.6,9.6v55.75h-32.37
				h-7.2h-56.35h-63.55h-56.35h-7.2h-21.58V869l-21.58,9c-4.41,2.01-6.59,5.2-6.59,9.59v142.08h49.75h7.2h56.35h63.55h56.35h7.2
				h84.53c7.59,0,14.99-1.6,22.18-4.8c7.2,3.2,17.18,4.8,29.98,4.8h85.13h11.99h53.96v-115.1l-21.59,8.99
				C769.15,925.55,766.77,928.74,766.77,933.14z"/>
			<path class="st1" d="M899.24,895.97h25.18c0.78,0,1.2-0.8,1.2-2.4v-24.59c0-0.79-0.41-1.2-1.2-1.2h-25.18
				c-0.8,0-1.19,0.4-1.19,1.2v24.59C898.05,895.16,898.45,895.97,899.24,895.97z"/>
			<path class="st1" d="M937.61,895.97h25.18c0.78,0,1.19-0.8,1.19-2.4v-24.59c0-0.79-0.41-1.2-1.19-1.2h-25.18
				c-0.8,0-1.19,0.4-1.19,1.2v24.59C936.41,895.16,936.82,895.97,937.61,895.97z"/>
			<path class="st1" d="M1435.79,898.36h24.59c0.78,0,1.19-0.39,1.19-1.19v-25.18c0-0.79-0.41-1.19-1.19-1.19h-24.59
				c-1.59,0-2.39,0.4-2.39,1.19v25.18C1433.4,897.96,1434.2,898.36,1435.79,898.36z"/>
			<path class="st1" d="M1622.23,942.13c-0.39-7.2-3.1-13.08-8.1-17.68c-4.99-4.59-10.88-6.89-17.67-6.89h-24.58
				c-13.59,0-25.09,4.79-34.48,14.38c-9.4,9.6-13.89,21.19-13.48,34.77l0.59,29.98v1.19c-2.8,3.2-4.99,5.2-6.58,5.99
				c-1.61,0.81-4.6,1.2-9.01,1.2h-7.79h-11.99h-23.38v-90.52l-21.58,8.99c-4.8,2.01-7.19,5.2-7.19,9.6l0.59,71.94h-31.76h-5.99
				h-57.55h-63.55h-57.55h-5.99h-19.8v-47.36c0-28.38-10.59-42.56-31.76-42.56c-10.4,0-22.1,2.5-35.06,7.49
				c-13,5-31.48,13.1-55.47,24.28v-19.79l-28.18,16.19v61.75h-32.35h-12h-24.58v-88.13l-53.35,0.61
				c-13.59,0.4-25.18,5.4-34.78,14.98c-9.6,9.6-14.39,21.19-14.39,34.77v13.8c0,13.59,4.8,25.28,14.39,35.06
				c9.6,9.8,21.19,14.48,34.78,14.09l53.35-0.6h24.58h12h202.63h5.99h57.55h63.55h57.55h5.99h83.33h11.99h7.79
				c9.6,0,17.78-2.6,24.58-7.79c5.19,5.2,12.2,7.79,20.99,7.79h38.36c9.19,0,16.5-2.9,21.88-8.69c5.4-5.79,8.1-13.88,8.1-24.27
				C1622.84,971.9,1622.64,953.72,1622.23,942.13z M946.02,1005.07v0.6h-22.79c-5.99,0-11.29-2.49-15.87-7.49
				c-4.6-4.99-6.9-10.69-6.9-17.09v-13.8c0-6.39,2.19-12.18,6.6-17.38c5.19-4.4,10.58-6.6,16.18-6.6l25.18-0.6l0.61,62.35h-3.01
				L946.02,1005.07L946.02,1005.07z M1166.02,1005.07h-92.92V973.3c25.18-11.59,43.77-19.68,55.75-24.28
				c12-4.59,20.78-6.89,26.38-6.89c4.41,0,7.29,1.19,8.7,3.59c1.39,2.4,2.09,6.4,2.09,11.99L1166.02,1005.07L1166.02,1005.07z
				 M1592.86,1005.07h-39.56c-3.21,0-4.8-2.79-4.8-8.39V966.7c0-6.39,2.39-11.89,7.19-16.48c4.8-4.59,10.59-7.1,17.39-7.5h19.78
				c1.59,0,2.8,0.81,3.6,2.4l1.19,51.56C1597.67,1002.28,1596.06,1005.07,1592.86,1005.07z"/>
		</g>
		<g>
			<g>
				<path class="st0" d="M26.04,1139.52c0.41,0,0.62-0.41,0.62-1.23v-12.56c0-0.4-0.21-0.61-0.62-0.61H13.17
					c-0.41,0-0.62,0.21-0.62,0.61v12.56c0,0.82,0.21,1.23,0.62,1.23H26.04z"/>
				<path class="st0" d="M45.65,1139.52c0.41,0,0.62-0.41,0.62-1.23v-12.56c0-0.4-0.21-0.61-0.62-0.61H32.78
					c-0.41,0-0.62,0.21-0.62,0.61v12.56c0,0.82,0.21,1.23,0.62,1.23H45.65z"/>
				<path class="st0" d="M72.93,1218.87c-0.41,0-0.62,0.21-0.62,0.62v12.56c0,0.82,0.21,1.23,0.62,1.23h12.87
					c0.41,0,0.62-0.41,0.62-1.23v-12.56c0-0.41-0.21-0.62-0.62-0.62H72.93z"/>
				<path class="st0" d="M92.54,1218.87c-0.41,0-0.62,0.21-0.62,0.62v12.56c0,0.82,0.21,1.23,0.62,1.23h12.87
					c0.41,0,0.62-0.41,0.62-1.23v-12.56c0-0.41-0.21-0.62-0.62-0.62H92.54z"/>
				<path class="st0" d="M350.32,1135.23v60.05h-13.79h-6.44h-6.43c2.65-8.99,3.99-16.75,3.99-23.28c0-7.36-1.44-12.98-4.29-16.85
					c-3.68-4.7-9.3-7.04-16.85-7.04c-4.7,0-9.91,0.71-15.63,2.14l-13.79,3.37l-4.29,13.18l9.19,28.49h-16.55h-5.51h-4.6
					c-2.04,0-3.52-0.15-4.44-0.45c-0.92-0.31-1.89-1.18-2.91-2.6v-1.23c0-12.66-0.11-21.96-0.31-27.89
					c-0.21-3.67-1.58-6.69-4.13-9.03c-2.56-2.35-5.57-3.52-9.04-3.52h-12.56c-6.95,0-12.82,2.44-17.62,7.35
					c-4.8,4.9-7.1,10.83-6.89,17.77l0.31,15.32v0.62c-1.44,1.64-2.56,2.66-3.37,3.06c-0.82,0.42-2.35,0.62-4.6,0.62h-3.98h-6.14
					h-13.79v-69.56l-11.03,4.6c-2.25,1.03-3.37,2.66-3.37,4.9v60.05h-14.09h-26.75H98.66v-46.26l-11.03,4.59
					c-2.45,1.03-3.67,2.66-3.67,4.9l0.3,36.77H71.08h-6.13H52.39v-45.04l-27.27,0.31c-6.95,0.21-12.87,2.76-17.77,7.66
					s-7.36,10.83-7.36,17.77v7.04c0,6.95,2.45,12.92,7.36,17.92s10.83,7.4,17.77,7.2l27.27-0.3h12.56h6.13h39.52h26.75h42.28h6.14
					h3.98c4.9,0,9.09-1.33,12.56-3.99c2.66,2.66,6.23,3.99,10.73,3.99h19.61c4.29,0,7.76-1.22,10.42-3.67
					c3.67,2.45,7.76,3.67,12.25,3.67h4.6h5.51h64.65h6.44h28.19v-82.12l-11.03,4.6C351.43,1131.35,350.32,1132.98,350.32,1135.23z
					 M37.07,1195.28v0.31H25.42c-3.06,0-5.77-1.28-8.12-3.83c-2.35-2.55-3.52-5.47-3.52-8.73v-7.04c0-3.27,1.11-6.23,3.37-8.89
					c2.65-2.25,5.4-3.37,8.27-3.37l12.87-0.3l0.31,31.86h-1.53V1195.28z M232.65,1195.28h-20.23c-1.64,0-2.45-1.43-2.45-4.29v-15.32
					c0-3.26,1.23-6.07,3.67-8.43c2.45-2.35,5.41-3.62,8.89-3.83h10.11c0.81,0,1.43,0.41,1.84,1.22l0.62,26.35
					C235.1,1193.85,234.28,1195.28,232.65,1195.28z M312.01,1185.17c-1.03,3.89-2.1,6.49-3.21,7.82c-1.13,1.33-3.02,2.1-5.67,2.29
					h-7.04l-9.81-27.27l1.53-4.29c2.04-0.81,5.31-1.63,9.8-2.45c2.86-0.4,4.7-0.62,5.52-0.62c3.47,0,6.43,1.03,8.88,3.07
					c1.43,1.44,2.15,4.09,2.15,7.96C314.17,1175.78,313.45,1180.27,312.01,1185.17z"/>
				<path class="st0" d="M375.43,1135.23v72.62h14.4v-82.12l-11.03,4.6C376.57,1131.35,375.43,1132.98,375.43,1135.23z"/>
				<path class="st0" d="M446.38,1153.15c-3.37,1.52-6.18,3.73-8.43,6.58c-4.29,5.11-6.43,11.75-6.43,19.92
					c0,7.96,2.14,14.4,6.43,19.31c4.29,5.92,10.73,8.88,19.31,8.88h10.42c-0.41,8.78-5.72,13.18-15.94,13.18h-3.37l-3.98,11.64
					c2.65,0.81,6.43,1.23,11.33,1.23c8.17,0,14.5-2.26,18.99-6.74c4.49-4.49,6.74-10.83,6.74-19v-56.99l-24.2-0.3
					C453.36,1150.85,449.74,1151.62,446.38,1153.15z M467.67,1195.28h-10.42c-3.48,0-6.39-1.48-8.73-4.44
					c-2.35-2.96-3.53-6.69-3.53-11.18c0-3.88,1.12-7.55,3.37-11.03c2.04-3.07,5-4.6,8.89-4.6h10.42V1195.28z"/>
				<path class="st0" d="M566.64,1139.52c0.41,0,0.62-0.41,0.62-1.23v-12.56c0-0.4-0.21-0.61-0.62-0.61h-12.87
					c-0.41,0-0.62,0.21-0.62,0.61v12.56c0,0.82,0.21,1.23,0.62,1.23H566.64z"/>
				<path class="st0" d="M547.03,1139.52c0.41,0,0.62-0.41,0.62-1.23v-12.56c0-0.4-0.21-0.61-0.62-0.61h-12.87
					c-0.41,0-0.62,0.21-0.62,0.61v12.56c0,0.82,0.21,1.23,0.62,1.23H547.03z"/>
				<path class="st0" d="M613.52,1218.87c-0.41,0-0.62,0.21-0.62,0.62v12.56c0,0.82,0.21,1.23,0.62,1.23h12.87
					c0.41,0,0.62-0.41,0.62-1.23v-12.56c0-0.41-0.21-0.62-0.62-0.62H613.52z"/>
				<path class="st0" d="M593.9,1218.87c-0.41,0-0.62,0.21-0.62,0.62v12.56c0,0.82,0.21,1.23,0.62,1.23h12.87
					c0.41,0,0.62-0.41,0.62-1.23v-12.56c0-0.41-0.21-0.62-0.62-0.62H593.9z"/>
				<path class="st0" d="M850.68,1135.23v60.05H836.9h-6.44h-6.42c2.64-8.99,3.98-16.75,3.98-23.28c0-7.36-1.43-12.98-4.28-16.85
					c-3.69-4.7-9.31-7.04-16.86-7.04c-4.7,0-9.91,0.71-15.63,2.14l-13.79,3.37l-4.29,13.18l9.19,28.49h-12.25h-9.81h-10.11v-69.56
					l-11.03,4.6c-2.25,1.03-3.37,2.66-3.37,4.9v60.05H717.4h-1.84h-8.28c-2.04,0-3.52-0.15-4.44-0.45c-0.92-0.31-1.89-1.18-2.91-2.6
					v-1.23c0-12.66-0.11-21.96-0.31-27.89c-0.21-3.67-1.58-6.69-4.13-9.03c-2.56-2.35-5.57-3.52-9.04-3.52h-12.56
					c-6.95,0-12.82,2.44-17.62,7.35c-4.8,4.9-7.1,10.83-6.89,17.77l0.31,15.32v0.62c-1.44,1.64-2.56,2.66-3.37,3.06
					c-0.82,0.42-2.35,0.62-4.6,0.62h-3.99h-6.13h-11.95v-46.26l-11.03,4.59c-2.45,1.03-3.67,2.66-3.67,4.9l0.3,36.77h-13.17h-6.14
					h-12.56v-45.04l-27.27,0.31c-6.95,0.21-12.87,2.76-17.77,7.66s-7.36,10.83-7.36,17.77v7.04c0,6.95,2.45,12.92,7.36,17.92
					c4.9,5,10.83,7.4,17.77,7.2l27.27-0.3h12.56h6.14h39.52h6.13h3.99c4.9,0,9.09-1.33,12.56-3.99c2.66,2.66,6.23,3.99,10.73,3.99
					h19.61c4.29,0,7.76-1.22,10.42-3.67c3.67,2.45,7.76,3.67,12.25,3.67h8.28h1.84h42.9h9.81h60.35h6.44h28.2v-82.12l-11.04,4.6
					C851.8,1131.35,850.68,1132.98,850.68,1135.23z M558.07,1195.28v0.31h-11.65c-3.06,0-5.77-1.28-8.12-3.83
					c-2.35-2.55-3.52-5.47-3.52-8.73v-7.04c0-3.27,1.11-6.23,3.37-8.89c2.65-2.25,5.4-3.37,8.27-3.37l12.87-0.3l0.31,31.86h-1.53
					L558.07,1195.28L558.07,1195.28z M684.61,1195.28h-20.23c-1.64,0-2.45-1.43-2.45-4.29v-15.32c0-3.26,1.23-6.07,3.67-8.43
					c2.45-2.35,5.41-3.62,8.89-3.83h10.11c0.81,0,1.43,0.41,1.84,1.22l0.62,26.35C687.07,1193.85,686.24,1195.28,684.61,1195.28z
					 M812.39,1185.17c-1.03,3.89-2.1,6.49-3.21,7.82c-1.13,1.33-3.02,2.1-5.67,2.29h-7.04l-9.81-27.27l1.53-4.29
					c2.04-0.81,5.31-1.63,9.8-2.45c2.86-0.4,4.7-0.62,5.52-0.62c3.47,0,6.43,1.03,8.88,3.07c1.43,1.44,2.15,4.09,2.15,7.96
					C814.53,1175.78,813.8,1180.27,812.39,1185.17z"/>
				<path class="st0" d="M875.82,1135.23v72.62h14.39v-82.12l-11.02,4.6C876.93,1131.35,875.82,1132.98,875.82,1135.23z"/>
				<path class="st0" d="M974.17,1143.49c0.41,0,0.61-0.4,0.61-1.22v-12.57c0-0.41-0.2-0.62-0.61-0.62h-12.88
					c-0.41,0-0.61,0.21-0.61,0.62v12.57c0,0.82,0.2,1.22,0.61,1.22H974.17z"/>
				<path class="st0" d="M993.78,1143.49c0.41,0,0.62-0.4,0.62-1.22v-12.57c0-0.41-0.21-0.62-0.62-0.62h-12.86
					c-0.41,0-0.61,0.21-0.61,0.62v12.57c0,0.82,0.2,1.22,0.61,1.22H993.78z"/>
				<path class="st0" d="M994.4,1158.51l0.3,36.77h-31.87c-5.31,0-9.13-1.17-11.49-3.52c-2.35-2.35-3.53-6.48-3.53-12.41
					c0-4.29,0.41-8.77,1.23-13.47h-11.95c-1.64,5.72-2.44,11.44-2.44,17.16c0,16.54,8.99,24.82,26.97,24.82h47.48v-58.83
					l-11.02,4.59C995.64,1154.63,994.4,1156.26,994.4,1158.51z"/>
				<path class="st0" d="M1024.42,1135.23v72.62h14.41v-82.12l-11.04,4.6C1025.55,1131.35,1024.42,1132.98,1024.42,1135.23z"/>
				<path class="st0" d="M1109.61,1218.87c-0.82,0-1.23,0.21-1.23,0.62v12.87c0,0.4,0.41,0.62,1.23,0.62h12.56
					c0.41,0,0.61-0.21,0.61-0.62v-12.87c0-0.41-0.2-0.62-0.61-0.62H1109.61z"/>
				<path class="st0" d="M1173.34,1143.81c0.41,0,0.61-0.21,0.61-0.62v-12.87c0-0.41-0.2-0.62-0.61-0.62h-12.57
					c-0.82,0-1.21,0.21-1.21,0.62v12.87c0,0.41,0.39,0.62,1.21,0.62H1173.34z"/>
				<path class="st0" d="M1229.42,1135.23v60.05h-14.11h-6.12h-17.78v-20.23c-0.2-7.35-2.6-13.38-7.19-18.08
					c-4.6-4.7-10.38-7.04-17.32-7.04c-2.05,0-4.96,0.36-8.74,1.07c-3.78,0.72-6.8,1.49-9.04,2.3l2.16,11.95
					c5.92-1.63,11.24-2.45,15.93-2.45c3.26,0,5.92,1.12,7.97,3.37c2.03,2.25,3.07,5.21,3.07,8.88l0.3,20.23h-35.24h-5.21h-12.86
					v-46.26l-11.04,4.59c-2.44,1.03-3.67,2.66-3.67,4.9l0.3,36.77h-13.18h-6.12h-12.88v-41.98l-11.02,3.67
					c-1.84,1.03-2.76,2.56-2.76,4.6v45.96c0,8.98-5.31,13.48-15.93,13.48h-3.37l-3.99,11.64c2.66,0.81,6.44,1.23,11.34,1.23
					c8.17,0,14.5-2.26,18.99-6.74c4.49-4.49,6.74-10.93,6.74-19.31h12.88h6.12h39.52h6.14h65.88h6.12h28.5v-82.12l-11.02,4.6
					C1230.54,1131.35,1229.42,1132.98,1229.42,1135.23z"/>
				<path class="st0" d="M1254.55,1135.23v72.62h14.39v-82.12l-11.02,4.6C1255.67,1131.35,1254.55,1132.98,1254.55,1135.23z"/>
				<path class="st0" d="M1342.78,1169.24l21.15-7.66l-2.14-7.66l-9.2,3.37c-3.07-1.64-4.58-3.07-4.58-4.3
					c0-0.81,0.5-1.47,1.52-1.99c1.03-0.51,2.46-0.77,4.3-0.77l3.07,0.31l0.61-7.97c-1.02-0.2-2.44-0.3-4.28-0.3
					c-4.1,0-7.37,1.03-9.81,3.06c-2.46,2.05-3.67,4.4-3.67,7.05c0,2.86,1.32,5.51,3.98,7.96l-3.98,1.53L1342.78,1169.24z"/>
				<path class="st0" d="M1371.58,1135.23v60.05h-35.22c-3.28,0-6.33-0.62-9.2-1.84c-3.67-1.84-5.51-6.84-5.51-15.02
					c0-3.47,0.3-7.66,0.93-12.56h-12.27c-1.02,5.72-1.53,11.44-1.53,17.16c0,11.44,3.58,18.8,10.74,22.06
					c4.08,1.84,9.29,2.76,15.62,2.76h50.85v-82.12l-11.04,4.6C1372.7,1131.35,1371.58,1132.98,1371.58,1135.23z"/>
				<path class="st0" d="M1419.38,1161.58v45.96c0,8.98-5.31,13.48-15.93,13.48h-3.37l-3.98,11.64c2.64,0.81,6.44,1.23,11.33,1.23
					c8.17,0,14.52-2.26,19.01-6.74c4.48-4.49,6.74-10.93,6.74-19.31v-54.54l-11.04,3.67
					C1420.31,1158,1419.38,1159.54,1419.38,1161.58z"/>
				<path class="st0" d="M1532.45,1128.49c0.41,0,0.61-0.21,0.61-0.62V1115c0-0.41-0.2-0.62-0.61-0.62h-12.56
					c-0.82,0-1.23,0.21-1.23,0.62v12.87c0,0.41,0.41,0.62,1.23,0.62H1532.45z"/>
				<path class="st0" d="M1522.65,1149.01c0.41,0,0.62-0.41,0.62-1.23v-12.56c0-0.41-0.21-0.62-0.62-0.62h-12.86
					c-0.41,0-0.62,0.21-0.62,0.62v12.56c0,0.82,0.21,1.23,0.62,1.23H1522.65z"/>
				<path class="st0" d="M1528.79,1135.23v12.56c0,0.82,0.2,1.23,0.61,1.23h12.88c0.41,0,0.61-0.41,0.61-1.23v-12.56
					c0-0.41-0.2-0.62-0.61-0.62h-12.88C1528.97,1134.61,1528.79,1134.82,1528.79,1135.23z"/>
				<path class="st0" d="M1602.61,1140.74c0.41,0,0.62-0.41,0.62-1.22v-12.56c0-0.41-0.21-0.62-0.62-0.62h-12.86
					c-0.41,0-0.62,0.21-0.62,0.62v12.56c0,0.81,0.21,1.22,0.62,1.22H1602.61z"/>
				<path class="st0" d="M1622.23,1126.34h-12.88c-0.41,0-0.61,0.21-0.61,0.62v12.56c0,0.81,0.2,1.22,0.61,1.22h12.88
					c0.41,0,0.61-0.41,0.61-1.22v-12.56C1622.84,1126.54,1622.65,1126.34,1622.23,1126.34z"/>
				<path class="st0" d="M1603.24,1158.51l0.3,36.77h-13.18h-6.14h-19.6v-46.26l-11.04,4.59c-2.44,1.03-3.67,2.66-3.67,4.9
					l0.3,36.77h-14.39c-1.64,0-2.44-0.71-2.44-2.14c0-18.18-0.73-30.85-2.16-38l-11.33,5.82c0.39,5.93,0.61,11.54,0.61,16.85
					c0,8.99-0.61,14.09-1.84,15.32c-1.43,1.43-3.17,2.14-5.21,2.14h-12.57v-37.07l-10.11,3.67c-2.25,1.03-3.37,2.66-3.37,4.9v28.49
					h-12.86h-7.35h-7.37v-69.56l-11.02,4.6c-2.25,1.03-3.37,2.66-3.37,4.9v72.62h21.76h7.35h39.52c3.89,0,7.67-0.81,11.34-2.45
					c3.67,1.64,8.77,2.45,15.32,2.45h43.5h6.14h27.57v-58.83l-11.02,4.59C1604.45,1154.63,1603.24,1156.26,1603.24,1158.51z"/>
			</g>
		</g>
	</g>
	<g>
		<g>
			<path class="st1" d="M963.82,40.23h35.88c1.16,0,1.74-0.57,1.74-1.74V1.74c0-1.16-0.59-1.74-1.74-1.74h-35.88
				c-2.33,0-3.5,0.59-3.5,1.74v36.75C960.32,39.66,961.48,40.23,963.82,40.23z"/>
			<path class="st1" d="M934.95,98.86h36.74c1.17,0,1.76-1.17,1.76-3.5V59.48c0-1.16-0.59-1.74-1.76-1.74h-36.74
				c-1.18,0-1.76,0.59-1.76,1.74v35.88C933.2,97.69,933.77,98.86,934.95,98.86z"/>
			<path class="st1" d="M989.2,59.48v35.88c0,2.33,0.57,3.5,1.74,3.5h36.75c1.16,0,1.74-1.17,1.74-3.5V59.48
				c0-1.16-0.59-1.74-1.74-1.74h-36.75C989.77,57.74,989.2,58.32,989.2,59.48z"/>
			<path class="st1" d="M1201.81,125.99l0.87,104.99h-37.63h-17.49h-56V98.87l-31.5,13.12c-7,2.93-10.5,7.59-10.5,14l0.89,104.99
				h-41.13c-4.67,0-7-2.04-7-6.13c0-51.9-2.04-88.07-6.12-108.49l-32.38,16.62c1.17,16.93,1.76,32.97,1.76,48.13
				c0,25.67-1.76,40.24-5.26,43.74c-4.09,4.09-9.05,6.13-14.88,6.13h-35.87V125.1l-28.87,10.5c-6.43,2.93-9.63,7.59-9.63,14v81.37
				h-47.24h-10.5h-82.24H382.65v35.87h348.42h82.24h10.5H947.2c11.08,0,21.88-2.33,32.37-7c10.5,4.67,25.08,7,43.76,7h124.24h17.49
				h78.75V98.85l-31.51,13.12C1205.31,114.91,1201.81,119.57,1201.81,125.99z"/>
			<path class="st1" d="M1149.31,75.23h36.74c1.17,0,1.76-1.16,1.76-3.49V35.87c0-1.16-0.59-1.74-1.76-1.74h-36.74
				c-1.18,0-1.76,0.59-1.76,1.74v35.88C1147.56,74.07,1148.14,75.23,1149.31,75.23z"/>
			<path class="st1" d="M1242.06,34.11h-36.75c-1.17,0-1.74,0.59-1.74,1.74v35.88c0,2.33,0.57,3.49,1.74,3.49h36.75
				c1.16,0,1.74-1.16,1.74-3.49V35.85C1243.81,34.7,1243.22,34.11,1242.06,34.11z"/>
		</g>
		<g>
			<path class="st0" d="M599.52,335.73V101.24l-31.5,13.13c-6.42,2.93-9.62,7.59-9.62,13.99v171.5H457.79
				c-9.34,0-18.09-1.76-26.25-5.26c-10.5-5.25-15.75-19.54-15.75-42.87c0-9.9,0.87-21.87,2.63-35.87h-35
				c-2.93,16.33-4.39,32.67-4.39,49c0,32.67,10.2,53.67,30.62,62.99c11.66,5.25,26.54,7.87,44.63,7.87h145.24V335.73z"/>
			<path class="st0" d="M476.17,225.48l60.36-21.87l-6.12-21.88l-26.25,9.63c-8.75-4.67-13.13-8.76-13.13-12.26
				c0-2.32,1.46-4.22,4.39-5.67c2.9-1.46,6.99-2.2,12.25-2.2l8.75,0.89l1.74-22.75c-2.92-0.57-6.99-0.87-12.25-0.87
				c-11.67,0-20.99,2.92-28,8.75c-7,5.83-10.5,12.55-10.5,20.12c0,8.17,3.79,15.75,11.38,22.75l-11.38,4.37L476.17,225.48z"/>
			<path class="st0" d="M631.89,410.1c23.32,0,41.41-6.42,54.25-19.25c12.83-12.83,19.25-31.21,19.25-55.12V179.99l-31.5,10.49
				c-5.25,2.93-7.87,7.3-7.87,13.13v131.24c0,25.65-15.18,38.5-45.5,38.5h-9.62l-11.38,33.24
				C607.09,408.93,617.9,410.1,631.89,410.1z"/>
			<path class="st0" d="M852.39,299.87h-10.5h-31.5V101.25l-31.5,13.13c-6.43,2.93-9.62,7.59-9.62,13.99v207.37h72.61h10.5h353.48
				c-6.41,163.12-114.2,300.39-262.12,350.62c-10.25-31.94-27.64-72.18-53.67-87.7c-45.8-27.33-116.6-34.51-202.64-126.98
				c-34.5-37.07-57.58-37.75-67.6-28.41c-18.41,17.09-21.61,55.1,11.81,86.13c48.59,45.1,86.77,99.46,87.95,101.16
				c-3.59-0.52-168.69-27.34-228.72-188.63c0,0-11.9-29.44-36.42-27.19c-22.88,2.11-20.38,33.41-19.94,37.58
				c44.24,174.32,204.21,296.53,385.37,291.93v0.17c228.6,0,415.03-182.01,423.15-408.66h0.77v-35.87H852.39V299.87z"/>
		</g>
	</g>
</g>
</svg>
